<?xml version="1.0" standalone="no"?>
<!DOCTYPE svg PUBLIC "-//W3C//DTD SVG 20010904//EN"
 "http://www.w3.org/TR/2001/REC-SVG-20010904/DTD/svg10.dtd">
<svg version="1.0" xmlns="http://www.w3.org/2000/svg"
 width="512.000000pt" height="512.000000pt" viewBox="0 0 512.000000 512.000000"
 preserveAspectRatio="xMidYMid meet">
<metadata>
Created by potrace 1.14, written by Peter Selinger 2001-2017
</metadata>
<g transform="translate(0.000000,512.000000) scale(0.100000,-0.100000)"
fill="#000000" stroke="none">
<path d="M2350 4329 c-126 -14 -229 -38 -360 -81 -558 -187 -993 -643 -1145
-1200 -42 -158 -56 -254 -62 -433 -8 -253 27 -467 112 -687 266 -689 921
-1138 1660 -1138 741 0 1393 448 1661 1142 126 327 149 732 59 1078 -185 715
-792 1239 -1527 1319 -111 13 -288 12 -398 0z m378 -50 c298 -32 545 -122 798
-290 153 -101 352 -302 457 -459 266 -401 354 -856 257 -1328 -116 -560 -542
-1054 -1082 -1253 -197 -72 -377 -103 -603 -103 -367 0 -662 90 -971 295 -154
103 -353 303 -457 459 -395 597 -395 1335 1 1930 105 158 304 359 456 459 352
233 749 334 1144 290z"/>
<path d="M2358 4129 c-2 -6 -37 -15 -79 -19 -41 -4 -83 -12 -94 -17 -11 -6
-42 -14 -70 -18 -27 -4 -59 -14 -70 -21 -11 -8 -29 -14 -41 -14 -32 0 -237
-108 -347 -182 -114 -78 -314 -275 -378 -373 -46 -71 -59 -90 -80 -119 -8 -11
-32 -57 -53 -101 -20 -44 -43 -93 -51 -108 -8 -16 -15 -35 -15 -42 0 -7 -6
-26 -14 -42 -14 -28 -23 -63 -54 -223 -9 -47 -20 -86 -24 -88 -10 -5 -11 -369
0 -374 4 -1 15 -46 24 -98 34 -192 61 -286 109 -370 5 -8 14 -26 19 -40 15
-35 44 -94 50 -100 7 -7 51 -74 84 -127 37 -61 173 -208 276 -298 42 -37 158
-121 185 -135 11 -6 34 -19 50 -30 17 -11 55 -31 85 -45 30 -14 68 -32 83 -40
16 -8 39 -15 51 -15 12 0 31 -7 42 -15 10 -8 29 -15 41 -15 12 0 45 -9 73 -20
28 -11 66 -20 84 -20 54 0 96 -11 96 -26 0 -11 39 -14 215 -14 176 0 215 3
215 14 0 15 42 26 96 26 18 0 56 9 84 20 28 11 61 20 73 20 12 0 31 7 41 15
11 8 29 15 40 15 11 0 39 9 63 20 85 39 128 62 158 81 17 10 39 23 50 29 142
72 411 341 527 528 26 42 98 189 98 200 0 5 7 15 15 22 8 7 15 24 15 39 0 15
6 35 14 46 7 11 16 39 19 61 4 23 14 54 22 70 8 16 15 52 15 79 0 64 9 95 26
95 11 0 14 37 14 205 0 168 -3 205 -14 205 -17 0 -26 31 -26 90 0 25 -9 71
-20 103 -11 31 -20 65 -20 76 0 11 -4 22 -9 26 -5 3 -12 20 -16 38 -5 26 -93
211 -130 275 -17 28 -49 77 -55 82 -3 3 -13 17 -23 32 -53 83 -267 292 -375
366 -103 70 -315 182 -346 182 -12 0 -30 6 -41 14 -11 7 -42 17 -70 21 -27 4
-59 12 -70 18 -11 5 -53 13 -94 17 -42 4 -77 13 -79 19 -3 8 -64 11 -197 11
-133 0 -194 -3 -197 -11z m1064 -956 c70 -71 128 -135 128 -143 0 -8 -287
-302 -637 -652 -547 -545 -641 -635 -658 -628 -28 11 -695 682 -695 699 0 19
250 271 269 271 8 0 106 -90 216 -200 124 -123 209 -200 221 -200 12 0 198
179 509 490 269 270 496 490 504 490 8 0 73 -57 143 -127z"/>
</g>
</svg>
